<?xml version="1.0" encoding="UTF-8" standalone="no"?>
<!DOCTYPE svg PUBLIC "-//W3C//DTD SVG 1.1//EN" "http://www.w3.org/Graphics/SVG/1.1/DTD/svg11.dtd">
<svg width="100%" height="100%" viewBox="0 0 9079 2476" version="1.1" xmlns="http://www.w3.org/2000/svg" xmlns:xlink="http://www.w3.org/1999/xlink" xml:space="preserve" xmlns:serif="http://www.serif.com/" style="fill-rule:evenodd;clip-rule:evenodd;stroke-linejoin:round;stroke-miterlimit:2;">
    <g transform="matrix(1,0,0,1,-3348.424996,-3934.050556)">
        <g id="Artboard2" transform="matrix(3.291965,0,0,0.858815,-6507.956712,3934.050556)">
            <rect x="2994.072" y="0" width="2757.852" height="2882.92" style="fill:none;"/>
            <g transform="matrix(0.205984,0,0,0.789568,2622.788948,-2022.61673)">
                <g transform="matrix(350.00919,0,0,350.00919,14535.608996,5918.878562)">
                </g>
                <text x="6191.584px" y="5918.879px" style="font-family:'BanglaMN', 'Bangla MN';font-size:350.009px;fill:rgb(0,5,74);">L&apos;EXCELLENCE <tspan x="9037.354px 9291.888px 9576.562px " y="5918.879px 5918.879px 5918.879px ">AU </tspan>SER<tspan x="10356.694px 10612.395px " y="5918.879px 5918.879px ">VI</tspan>CE DE <tspan x="11951.569px 12199.687px 12531.029px " y="5918.879px 5918.879px 5918.879px ">VOS</tspan> PR<tspan x="13315.244px 13646.586px " y="5918.879px 5918.879px ">OJ</tspan>ETS</text>
            </g>
            <g transform="matrix(0.338593,0,0,1.297877,1928.194709,-6182.422928)">
                <path d="M6164.573,6288.215C6186.476,6288.215 6208.155,6285.198 6229.611,6279.163C6251.067,6273.129 6270.288,6264.189 6287.273,6252.344C6304.259,6240.498 6317.893,6225.971 6328.174,6208.761C6338.455,6191.552 6343.595,6171.549 6343.595,6148.752C6343.595,6121.485 6336.555,6097.236 6322.474,6076.003C6308.394,6054.771 6289.955,6035.326 6267.159,6017.67C6244.362,6000.014 6218.324,5983.363 6189.046,5967.718C6159.767,5952.073 6129.93,5936.428 6099.535,5920.783C6069.139,5905.138 6039.302,5888.711 6010.023,5871.502C5980.745,5854.292 5954.707,5835.072 5931.91,5813.839C5909.114,5792.607 5890.675,5768.916 5876.595,5742.767C5862.514,5716.617 5855.474,5686.557 5855.474,5652.585C5855.474,5618.613 5861.844,5587.1 5874.583,5558.045C5887.322,5528.99 5905.985,5503.846 5930.569,5482.614C5955.154,5461.382 5985.438,5444.731 6021.422,5432.662C6057.405,5420.593 6098.641,5414.559 6145.128,5414.559C6187.146,5414.559 6224.694,5419.029 6257.772,5427.969C6290.849,5436.909 6319.904,5450.095 6344.936,5467.528C6369.968,5484.961 6391.2,5506.417 6408.633,5531.896C6426.066,5557.374 6440.147,5586.876 6450.875,5620.401L6374.438,5655.267C6365.498,5628 6354.1,5603.08 6340.243,5580.506C6326.386,5557.933 6309.847,5538.6 6290.626,5522.509C6271.405,5506.417 6249.167,5494.012 6223.912,5485.296C6198.656,5476.58 6170.16,5472.221 6138.423,5472.221C6110.262,5472.221 6085.678,5476.133 6064.669,5483.955C6043.66,5491.777 6026.115,5502.058 6012.035,5514.798C5997.954,5527.537 5987.45,5541.841 5980.521,5557.71C5973.593,5573.578 5970.129,5589.782 5970.129,5606.321C5970.129,5629.564 5977.281,5650.909 5991.585,5670.353C6005.889,5689.797 6024.886,5708.124 6048.577,5725.334C6072.268,5742.543 6099.199,5759.194 6129.372,5775.286C6159.544,5791.378 6190.275,5807.693 6221.565,5824.232C6252.855,5840.771 6283.586,5857.98 6313.758,5875.86C6343.93,5893.74 6370.862,5913.296 6394.553,5934.528C6418.244,5955.761 6437.241,5979.005 6451.545,6004.26C6465.849,6029.515 6473.001,6057.788 6473.001,6089.078C6473.001,6124.391 6466.296,6157.58 6452.886,6188.646C6439.476,6219.713 6419.361,6246.756 6392.541,6269.777C6365.721,6292.797 6332.42,6311.012 6292.637,6324.422C6252.855,6337.832 6206.59,6344.537 6153.845,6344.537C6110.933,6344.537 6072.715,6339.843 6039.19,6330.456C6005.665,6321.069 5976.051,6307.436 5950.349,6289.556C5924.647,6271.676 5902.632,6249.885 5884.305,6224.183C5865.978,6198.48 5851.004,6169.09 5839.382,6136.013L5919.171,6103.158C5928.558,6132.213 5941.186,6158.139 5957.054,6180.936C5972.922,6203.733 5991.361,6223.065 6012.37,6238.934C6033.379,6254.802 6056.735,6266.983 6082.437,6275.476C6108.139,6283.969 6135.518,6288.215 6164.573,6288.215Z" style="fill:rgb(0,5,74);fill-rule:nonzero;"/>
                <path d="M7299.052,5434.674L7299.052,5492.336L6830.375,5492.336L6830.375,5810.151L7144.168,5810.151L7144.168,5867.814L6830.375,5867.814L6830.375,6266.089L7299.052,6266.089L7299.052,6323.751L6680.855,6323.751L6680.855,5434.674L7299.052,5434.674Z" style="fill:rgb(0,5,74);fill-rule:nonzero;"/>
                <path d="M7474.722,5434.674L7624.243,5434.674L7624.243,6266.089L8072.134,6266.089L8072.134,6323.751L7474.722,6323.751L7474.722,5434.674Z" style="fill:rgb(0,5,74);fill-rule:nonzero;"/>
                <path d="M8823.76,5434.674L8823.76,5492.336L8355.084,5492.336L8355.084,5810.151L8668.876,5810.151L8668.876,5867.814L8355.084,5867.814L8355.084,6266.089L8823.76,6266.089L8823.76,6323.751L8205.563,6323.751L8205.563,5434.674L8823.76,5434.674Z" style="fill:rgb(0,5,74);fill-rule:nonzero;"/>
                <path d="M9450.004,6344.537C9381.166,6344.537 9316.91,6332.244 9257.236,6307.66C9197.562,6283.075 9145.71,6249.438 9101.681,6206.75C9057.652,6164.062 9023.009,6114.221 8997.754,6057.229C8972.499,6000.237 8959.871,5939.334 8959.871,5874.519C8959.871,5832.054 8965.57,5791.154 8976.969,5751.818C8988.367,5712.482 9004.571,5675.829 9025.58,5641.857C9046.589,5607.885 9071.956,5576.93 9101.681,5548.993C9131.406,5521.056 9164.372,5497.141 9200.579,5477.25C9236.786,5457.359 9276.01,5441.937 9318.251,5430.986C9360.493,5420.034 9404.41,5414.559 9450.004,5414.559C9496.045,5414.559 9540.074,5420.034 9582.092,5430.986C9624.109,5441.937 9663.333,5457.359 9699.764,5477.25C9736.194,5497.141 9769.16,5521.056 9798.662,5548.993C9828.164,5576.93 9853.531,5607.885 9874.763,5641.857C9895.995,5675.829 9912.311,5712.482 9923.709,5751.818C9935.108,5791.154 9940.807,5832.054 9940.807,5874.519C9940.807,5917.878 9935.108,5959.449 9923.709,5999.231C9912.311,6039.014 9895.995,6076.338 9874.763,6111.204C9853.531,6146.07 9828.164,6177.807 9798.662,6206.415C9769.16,6235.022 9736.194,6259.607 9699.764,6280.169C9663.333,6300.731 9624.109,6316.599 9582.092,6327.774C9540.074,6338.949 9496.045,6344.537 9450.004,6344.537ZM9450.004,6300.284C9500.961,6300.284 9545.996,6289.668 9585.109,6268.436C9624.221,6247.203 9657.187,6217.59 9684.007,6179.595C9710.827,6141.6 9731.053,6096.677 9744.687,6044.825C9758.32,5992.973 9765.137,5936.205 9765.137,5874.519C9765.137,5813.28 9758.32,5757.182 9744.687,5706.225C9731.053,5655.267 9710.827,5611.349 9684.007,5574.472C9657.187,5537.595 9624.221,5508.987 9585.109,5488.649C9545.996,5468.31 9500.961,5458.141 9450.004,5458.141C9398.152,5458.141 9352.67,5468.31 9313.558,5488.649C9274.446,5508.987 9241.591,5537.595 9214.995,5574.472C9188.399,5611.349 9168.395,5655.267 9154.985,5706.225C9141.576,5757.182 9134.871,5813.28 9134.871,5874.519C9134.871,5936.205 9141.576,5992.973 9154.985,6044.825C9168.395,6096.677 9188.399,6141.6 9214.995,6179.595C9241.591,6217.59 9274.446,6247.203 9313.558,6268.436C9352.67,6289.668 9398.152,6300.284 9450.004,6300.284Z" style="fill:rgb(255,192,0);fill-rule:nonzero;"/>
                <path d="M10141.956,5434.674L10450.384,5434.674C10503.577,5434.674 10550.288,5440.373 10590.518,5451.771C10630.747,5463.17 10664.272,5479.15 10691.092,5499.712C10717.912,5520.274 10738.139,5544.747 10751.772,5573.131C10765.405,5601.515 10772.222,5632.47 10772.222,5665.995C10772.222,5693.709 10766.97,5719.634 10756.466,5743.772C10745.961,5767.91 10731.21,5789.701 10712.213,5809.146C10693.215,5828.59 10670.307,5845.352 10643.487,5859.433C10616.667,5873.513 10587.165,5884.576 10554.981,5892.622L10878.831,6323.751L10705.173,6323.751L10396.074,5906.032L10291.476,5906.032L10291.476,6323.751L10141.956,6323.751L10141.956,5434.674ZM10291.476,5861.109L10377.97,5861.109C10411.495,5861.109 10442.45,5856.639 10470.834,5847.699C10499.219,5838.759 10523.803,5826.132 10544.589,5809.816C10565.374,5793.501 10581.578,5773.721 10593.2,5750.477C10604.822,5727.233 10610.633,5701.084 10610.633,5672.029C10610.633,5645.209 10606.051,5620.624 10596.887,5598.275C10587.724,5575.925 10574.761,5556.816 10557.999,5540.947C10541.236,5525.079 10521.345,5512.675 10498.325,5503.735C10475.304,5494.795 10450.161,5490.325 10422.894,5490.325L10291.476,5490.325L10291.476,5861.109Z" style="fill:rgb(255,192,0);fill-rule:nonzero;"/>
            </g>
            <g transform="matrix(0.334722,0,0,1.283041,2775.409574,-1146.940918)">
                <rect x="808.454" y="1082.155" width="627.154" height="627.154" style="fill:rgb(255,192,0);"/>
            </g>
            <g transform="matrix(0.334722,0,0,1.283041,2985.332214,-342.276239)">
                <path d="M808.454,1082.155L1435.609,1082.155L1435.609,1084.812C1435.609,1084.812 1239.251,1424.914 1136.348,1603.147C1098.42,1668.841 1028.325,1709.31 952.469,1709.31L808.454,1709.31L808.454,1082.155Z" style="fill:rgb(0,5,74);"/>
            </g>
            <g transform="matrix(0.334722,0,0,1.283041,2775.409574,462.388439)">
                <rect x="808.454" y="1082.155" width="627.154" height="627.154" style="fill:rgb(255,192,0);"/>
            </g>
            <g transform="matrix(0.30377,0,0,1.164395,1976.921462,-4580.789726)">
                <path d="M5205.824,4308.417C5265.471,4205.105 5375.704,4141.462 5494.999,4141.462L6130.414,4141.462L4933.466,6214.636L4504.656,6214.636L5302.621,4832.52L4903.233,4832.52L5205.824,4308.417Z" style="fill:rgb(0,5,74);"/>
            </g>
        </g>
    </g>
</svg>
