<?xml version="1.0" encoding="UTF-8" standalone="no"?>
<!DOCTYPE svg PUBLIC "-//W3C//DTD SVG 1.1//EN" "http://www.w3.org/Graphics/SVG/1.1/DTD/svg11.dtd">
<svg width="100%" height="100%" viewBox="0 0 2502 928" version="1.1" xmlns="http://www.w3.org/2000/svg" xmlns:xlink="http://www.w3.org/1999/xlink" xml:space="preserve" xmlns:serif="http://www.serif.com/" style="fill-rule:evenodd;clip-rule:evenodd;stroke-linejoin:round;stroke-miterlimit:2;">
    <g transform="matrix(1,0,0,1,-6392.041022,0)">
        <g id="Artboard3" transform="matrix(0.828322,0,0,0.264298,1135.773684,0)">
            <rect x="6345.679" y="0" width="3019.489" height="3507.874" style="fill:none;"/>
            <g transform="matrix(0.578993,0,0,1.403171,6155.122822,-1506.402943)">
                <g transform="matrix(0.991774,0,0,1.282573,-253.344772,-311.155542)">
                    <path d="M1050.057,2311.355C1042.431,2313.772 1034.719,2315.995 1026.926,2318.017C1023.66,2318.865 1020.38,2319.677 1017.087,2320.453C1021.732,2318.882 1026.427,2317.42 1031.17,2316.071C1037.387,2314.303 1043.685,2312.728 1050.057,2311.355ZM1050.057,2311.355C1042.431,2313.772 1034.719,2315.995 1026.926,2318.017C1023.66,2318.865 1020.38,2319.677 1017.087,2320.453C1021.732,2318.882 1026.427,2317.42 1031.17,2316.071C1037.387,2314.303 1043.685,2312.728 1050.057,2311.355ZM1050.057,2311.355C1042.431,2313.772 1034.719,2315.995 1026.926,2318.017C1023.66,2318.865 1020.38,2319.677 1017.087,2320.453C1021.732,2318.882 1026.427,2317.42 1031.17,2316.071C1037.387,2314.303 1043.685,2312.728 1050.057,2311.355ZM1050.057,2311.355C1042.431,2313.772 1034.719,2315.995 1026.926,2318.017C1023.66,2318.865 1020.38,2319.677 1017.087,2320.453C1021.732,2318.882 1026.427,2317.42 1031.17,2316.071C1037.387,2314.303 1043.685,2312.728 1050.057,2311.355ZM1050.057,2311.355C1042.431,2313.772 1034.719,2315.995 1026.926,2318.017C1023.66,2318.865 1020.38,2319.677 1017.087,2320.453C1021.732,2318.882 1026.427,2317.42 1031.17,2316.071C1037.387,2314.303 1043.685,2312.728 1050.057,2311.355ZM1050.057,2311.355C1042.431,2313.772 1034.719,2315.995 1026.926,2318.017C1023.66,2318.865 1020.38,2319.677 1017.087,2320.453C1021.732,2318.882 1026.427,2317.42 1031.17,2316.071C1037.387,2314.303 1043.685,2312.728 1050.057,2311.355ZM1050.057,2311.355C1042.431,2313.772 1034.719,2315.995 1026.926,2318.017C1023.66,2318.865 1020.38,2319.677 1017.087,2320.453C1021.732,2318.882 1026.427,2317.42 1031.17,2316.071C1037.387,2314.303 1043.685,2312.728 1050.057,2311.355Z" style="fill:none;"/>
                </g>
                <g transform="matrix(0.991774,0,0,1.282573,930.279429,-311.155542)">
                    <path d="M707.167,1680.789C699.654,1693.585 691.537,1705.985 682.855,1717.948C690.059,1704.947 698.194,1692.531 707.167,1680.789ZM795.747,2317.739C791.028,2316.502 786.339,2315.192 781.681,2313.809C786.415,2315.008 791.105,2316.319 795.747,2317.739ZM567.607,1574.244C565.458,1577.444 563.25,1580.601 560.984,1583.714C554.062,1593.221 546.601,1602.312 538.646,1610.939M707.167,1680.789C699.654,1693.585 691.537,1705.985 682.855,1717.948C690.059,1704.947 698.194,1692.531 707.167,1680.789ZM567.607,1574.244C565.458,1577.444 563.25,1580.601 560.984,1583.714C554.062,1593.221 546.601,1602.312 538.646,1610.939M707.167,1680.789C699.654,1693.585 691.537,1705.985 682.855,1717.948C690.059,1704.947 698.194,1692.531 707.167,1680.789ZM567.607,1574.244C565.458,1577.444 563.25,1580.601 560.984,1583.714C554.062,1593.221 546.601,1602.312 538.646,1610.939M707.167,1680.789C699.654,1693.585 691.537,1705.985 682.855,1717.948C690.059,1704.947 698.194,1692.531 707.167,1680.789ZM567.607,1574.244C565.458,1577.444 563.25,1580.601 560.984,1583.714C554.062,1593.221 546.601,1602.312 538.646,1610.939M707.167,1680.789C699.654,1693.585 691.537,1705.985 682.855,1717.948C690.059,1704.947 698.194,1692.531 707.167,1680.789ZM567.607,1574.244C565.458,1577.444 563.25,1580.601 560.984,1583.714C554.062,1593.221 546.601,1602.312 538.646,1610.939M707.167,1680.789C699.654,1693.585 691.537,1705.985 682.855,1717.948C690.059,1704.947 698.194,1692.531 707.167,1680.789ZM567.607,1574.244C565.458,1577.444 563.25,1580.601 560.984,1583.714C554.062,1593.221 546.601,1602.312 538.646,1610.939M707.167,1680.789C699.654,1693.585 691.537,1705.985 682.855,1717.948C690.059,1704.947 698.194,1692.531 707.167,1680.789ZM795.747,2317.739C791.028,2316.502 786.339,2315.192 781.681,2313.809C786.415,2315.008 791.105,2316.319 795.747,2317.739ZM567.607,1574.244C565.458,1577.444 563.25,1580.601 560.984,1583.714C554.062,1593.221 546.601,1602.312 538.646,1610.939M567.607,1574.244C565.458,1577.444 563.25,1580.601 560.984,1583.714C554.062,1593.221 546.601,1602.312 538.646,1610.939M707.167,1680.789C699.654,1693.585 691.537,1705.985 682.855,1717.948C690.059,1704.947 698.194,1692.531 707.167,1680.789ZM795.747,2317.739C791.028,2316.502 786.339,2315.192 781.681,2313.809C786.415,2315.008 791.105,2316.319 795.747,2317.739ZM795.747,2317.739C791.028,2316.502 786.339,2315.192 781.681,2313.809C786.415,2315.008 791.105,2316.319 795.747,2317.739Z" style="fill:none;"/>
                </g>
                <g transform="matrix(0.656407,0,0,0.848872,1271.748385,488.173402)">
                    <path d="M548.258,1597.891C536.907,1617.225 524.643,1635.959 511.525,1654.034C522.411,1634.391 534.7,1615.631 548.258,1597.891ZM548.258,1597.891C536.907,1617.225 524.643,1635.959 511.525,1654.034C522.411,1634.391 534.7,1615.631 548.258,1597.891Z" style="fill:none;"/>
                </g>
                <g transform="matrix(0.656407,0,0,0.848872,1033.120963,1441.026385)">
                    <path d="M1045.632,1437.774C1038.502,1435.905 1031.417,1433.925 1024.378,1431.836C1031.531,1433.648 1038.617,1435.629 1045.632,1437.774ZM1045.632,1437.774C1038.502,1435.905 1031.417,1433.925 1024.378,1431.836C1031.531,1433.648 1038.617,1435.629 1045.632,1437.774Z" style="fill:none;"/>
                </g>
                <g transform="matrix(0.656407,0,0,0.848872,252.98056,1441.026385)">
                    <path d="M1368.962,1858.852C1368.867,1856.797 1368.781,1854.74 1368.703,1852.681C1368.803,1854.734 1368.89,1856.791 1368.962,1858.852ZM815.186,1428.128C803.664,1431.78 792.011,1435.139 780.237,1438.194C775.303,1439.475 770.347,1440.702 765.371,1441.875C772.389,1439.501 779.483,1437.292 786.649,1435.254C796.042,1432.582 805.558,1430.203 815.186,1428.128ZM1368.962,1858.852C1368.867,1856.797 1368.781,1854.74 1368.703,1852.681C1368.803,1854.734 1368.89,1856.791 1368.962,1858.852Z" style="fill:none;"/>
                </g>
                <g transform="matrix(0.657239,0,0,0.849949,644.154127,-102.264156)">
                    <path d="M1291.863,2129.763C1288.62,2134.593 1285.288,2139.357 1281.869,2144.054C1271.423,2158.4 1260.164,2172.118 1248.16,2185.137" style="fill:none;"/>
                </g>
                <g transform="matrix(0.991774,0,0,1.282573,700.333157,586.192239)">
                    <path d="M1027.601,1618.092C1022.882,1616.855 1018.193,1615.545 1013.534,1614.162C1018.268,1615.362 1022.958,1616.673 1027.601,1618.092ZM454.986,1896.783C454.923,1895.423 454.866,1894.062 454.815,1892.699C454.881,1894.058 454.938,1895.419 454.986,1896.783Z" style="fill:none;"/>
                </g>
                <g transform="matrix(0.991774,0,0,1.282573,-24.808062,586.192239)">
                    <path d="M1186.142,1896.783C1186.079,1895.423 1186.022,1894.062 1185.971,1892.699C1186.037,1894.058 1186.094,1895.419 1186.142,1896.783ZM819.625,1611.708C811.999,1614.125 804.286,1616.348 796.494,1618.37C793.228,1619.218 789.948,1620.03 786.655,1620.807C791.3,1619.235 795.995,1617.773 800.738,1616.424C806.954,1614.656 813.253,1613.081 819.625,1611.708Z" style="fill:none;"/>
                </g>
                <g transform="matrix(1,0,0,1.293211,0,0)">
                    <path d="M1650.686,1390.264C1647.415,1401.768 1641.85,1412.31 1634.517,1421.363C1640.292,1411.234 1645.688,1400.861 1650.686,1390.264ZM1650.686,1390.264C1647.415,1401.768 1641.85,1412.31 1634.517,1421.363C1640.292,1411.234 1645.688,1400.861 1650.686,1390.264ZM1650.686,1390.264C1647.415,1401.768 1641.85,1412.31 1634.517,1421.363C1640.292,1411.234 1645.688,1400.861 1650.686,1390.264ZM1650.686,1390.264C1647.415,1401.768 1641.85,1412.31 1634.517,1421.363C1640.292,1411.234 1645.688,1400.861 1650.686,1390.264ZM1650.686,1390.264C1647.415,1401.768 1641.85,1412.31 1634.517,1421.363C1640.292,1411.234 1645.688,1400.861 1650.686,1390.264ZM1650.686,1390.264C1647.415,1401.768 1641.85,1412.31 1634.517,1421.363C1640.292,1411.234 1645.688,1400.861 1650.686,1390.264ZM1650.686,1390.264C1647.415,1401.768 1641.85,1412.31 1634.517,1421.363C1640.292,1411.234 1645.688,1400.861 1650.686,1390.264ZM1650.686,1390.264C1647.415,1401.768 1641.85,1412.31 1634.517,1421.363C1640.292,1411.234 1645.688,1400.861 1650.686,1390.264Z" style="fill:none;"/>
                </g>
                <g transform="matrix(1,0,0,1.293211,0,0)">
                    <path d="M1720.745,2058.395C1733.269,2061.638 1746.002,2064.36 1758.92,2066.534M1720.745,2058.395C1733.269,2061.638 1746.002,2064.36 1758.92,2066.534M1720.745,2058.395C1733.269,2061.638 1746.002,2064.36 1758.92,2066.534M1720.745,2058.395C1733.269,2061.638 1746.002,2064.36 1758.92,2066.534M1720.745,2058.395C1733.269,2061.638 1746.002,2064.36 1758.92,2066.534M1720.745,2058.395C1733.269,2061.638 1746.002,2064.36 1758.92,2066.534" style="fill:none;"/>
                </g>
                <g transform="matrix(1,0,0,1.293211,0,0)">
                    <path d="M765.133,2058.341C755.475,2062.463 744.928,2064.899 733.863,2065.279C741.095,2063.942 748.267,2062.433 755.375,2060.757C758.642,2059.987 761.894,2059.181 765.133,2058.341ZM765.133,2058.341C755.475,2062.463 744.928,2064.899 733.863,2065.279C741.095,2063.942 748.267,2062.433 755.375,2060.757C758.642,2059.987 761.894,2059.181 765.133,2058.341ZM765.133,2058.341C755.475,2062.463 744.928,2064.899 733.863,2065.279C741.095,2063.942 748.267,2062.433 755.375,2060.757C758.642,2059.987 761.894,2059.181 765.133,2058.341ZM765.133,2058.341C755.475,2062.463 744.928,2064.899 733.863,2065.279C741.095,2063.942 748.267,2062.433 755.375,2060.757C758.642,2059.987 761.894,2059.181 765.133,2058.341ZM765.133,2058.341C755.475,2062.463 744.928,2064.899 733.863,2065.279C741.095,2063.942 748.267,2062.433 755.375,2060.757C758.642,2059.987 761.894,2059.181 765.133,2058.341ZM765.133,2058.341C755.475,2062.463 744.928,2064.899 733.863,2065.279C741.095,2063.942 748.267,2062.433 755.375,2060.757C758.642,2059.987 761.894,2059.181 765.133,2058.341ZM765.133,2058.341C755.475,2062.463 744.928,2064.899 733.863,2065.279C741.095,2063.942 748.267,2062.433 755.375,2060.757C758.642,2059.987 761.894,2059.181 765.133,2058.341ZM765.133,2058.341C755.475,2062.463 744.928,2064.899 733.863,2065.279C741.095,2063.942 748.267,2062.433 755.375,2060.757C758.642,2059.987 761.894,2059.181 765.133,2058.341ZM765.133,2058.341C755.475,2062.463 744.928,2064.899 733.863,2065.279C741.095,2063.942 748.267,2062.433 755.375,2060.757C758.642,2059.987 761.894,2059.181 765.133,2058.341Z" style="fill:none;"/>
                </g>
                <g transform="matrix(1,0,0,1.293211,0,0)">
                    <path d="M838.167,1407.416C834.394,1401.646 831.283,1395.405 828.942,1388.8C831.879,1395.085 834.955,1401.292 838.167,1407.416ZM838.167,1407.416C834.394,1401.646 831.283,1395.405 828.942,1388.8C831.879,1395.085 834.955,1401.292 838.167,1407.416ZM838.167,1407.416C834.394,1401.646 831.283,1395.405 828.942,1388.8C831.879,1395.085 834.955,1401.292 838.167,1407.416ZM838.167,1407.416C834.394,1401.646 831.283,1395.405 828.942,1388.8C831.879,1395.085 834.955,1401.292 838.167,1407.416ZM838.167,1407.416C834.394,1401.646 831.283,1395.405 828.942,1388.8C831.879,1395.085 834.955,1401.292 838.167,1407.416Z" style="fill:none;"/>
                </g>
                <g transform="matrix(1.234966,0,0,1.597072,219.039081,745.018905)">
                    <path d="M501.332,673.149C498.277,668.477 495.757,663.423 493.862,658.075C496.24,663.164 498.731,668.19 501.332,673.149Z" style="fill:none;"/>
                </g>
                <g transform="matrix(1.234966,0,0,1.597072,38.320457,1544.445544)">
                    <path d="M588.528,699.67C580.708,703.008 572.168,704.981 563.208,705.288C569.064,704.205 574.871,702.984 580.627,701.627C584.357,700.365 588.128,699.191 591.937,698.107C590.817,698.657 589.68,699.179 588.528,699.67Z" style="fill:none;"/>
                </g>
                <g transform="matrix(1.234966,0,0,1.597072,873.92698,753.717322)">
                    <path d="M524.498,573.431C516.465,581.094 508.778,589.117 501.463,597.474C499.738,600.044 497.964,602.579 496.144,605.079M628.972,653.813C626.323,663.128 621.817,671.665 615.879,678.996C620.556,670.794 624.925,662.394 628.972,653.813Z" style="fill:none;"/>
                </g>
                <g transform="matrix(1,0,0,1.293211,0,0)">
                    <path d="M729.344,1884.995C837.032,1839.368 912.657,1732.655 912.657,1608.418C912.657,1560.163 901.248,1514.552 880.983,1474.137C870.485,1453.202 857.612,1433.662 842.717,1415.871C841.172,1413.071 839.655,1410.252 838.167,1407.416C834.955,1401.292 831.879,1395.085 828.942,1388.8C825.701,1379.656 823.937,1369.815 823.937,1359.565C823.937,1311.221 863.186,1271.971 911.531,1271.971C928.524,1271.971 944.395,1276.821 957.831,1285.211C967.64,1294.227 977.052,1303.669 986.036,1313.508C990.542,1318.443 994.942,1323.478 999.229,1328.609C1004.388,1335.784 1009.854,1342.723 1015.609,1349.406C1070.755,1413.447 1152.412,1454.022 1243.471,1454.022C1330.837,1454.022 1409.548,1416.671 1464.494,1357.08C1472.384,1348.523 1479.783,1339.508 1486.649,1330.078C1488.896,1326.992 1491.086,1323.86 1493.217,1320.686C1502.25,1310.366 1511.743,1300.457 1521.664,1290.994C1534.765,1283.185 1550.072,1278.698 1566.418,1278.698C1614.763,1278.698 1654.012,1317.947 1654.012,1366.291C1654.012,1374.602 1652.852,1382.644 1650.686,1390.264C1645.688,1400.861 1640.292,1411.234 1634.517,1421.363C1633.565,1423.034 1632.602,1424.698 1631.629,1426.355C1622.729,1438 1614.662,1450.314 1607.517,1463.208C1551.916,1539.819 1472.95,1598.393 1381.12,1628.429C1336.742,1642.944 1289.359,1650.794 1240.157,1650.794C1192.916,1650.794 1147.352,1643.557 1104.514,1630.132C1102.297,1723.838 1071.605,1810.549 1020.767,1881.937C976.318,1867.37 928.852,1859.491 879.56,1859.491C826.922,1859.491 776.367,1868.476 729.344,1884.995Z" style="fill:rgb(3,0,42);"/>
                </g>
                <g transform="matrix(1,0,0,1.293211,17.162166,570.560955)">
                    <circle cx="620.708" cy="1178.073" r="134.667" style="fill:rgb(24,34,61);"/>
                </g>
                <g transform="matrix(1,0,0,1.293211,1224.549052,570.560955)">
                    <circle cx="620.708" cy="1178.073" r="134.667" style="fill:rgb(83,52,133);"/>
                </g>
                <g transform="matrix(1,0,0,1.293211,996.314603,1487.897157)">
                    <circle cx="620.708" cy="1178.073" r="134.667" style="fill:rgb(83,52,133);"/>
                </g>
                <g transform="matrix(1,0,0,1.293211,621.422665,-7.483741)">
                    <circle cx="620.708" cy="1178.073" r="134.667" style="fill:rgb(24,34,61);"/>
                </g>
                <g transform="matrix(1,0,0,1.293211,241.479804,1487.897157)">
                    <circle cx="620.708" cy="1178.073" r="134.667" style="fill:rgb(233,69,96);"/>
                </g>
                <g transform="matrix(1,0,0,1.293211,0,0)">
                    <path d="M1607.517,1463.208C1583.662,1506.252 1570.077,1555.761 1570.077,1608.418C1570.077,1730.502 1643.104,1835.665 1747.821,1882.568C1757.873,1885.913 1767.769,1889.599 1777.496,1893.614C1778.786,1894.147 1780.072,1894.685 1781.356,1895.229C1790.848,1899.251 1800.175,1903.586 1809.323,1908.223C1831.102,1924.165 1845.257,1949.917 1845.257,1978.949C1845.257,2026.874 1806.686,2065.861 1758.92,2066.534C1746.002,2064.36 1733.269,2061.638 1720.745,2058.395L1719.48,2058.065C1714.876,2056.657 1710.225,2055.357 1705.53,2054.168C1681.9,2048.182 1657.158,2045.001 1631.678,2045.001C1476.919,2045.001 1349.351,2162.35 1333.179,2312.843L1333.18,2313.111C1333.18,2326.235 1332.621,2339.231 1331.526,2352.074C1330.999,2358.259 1330.348,2364.409 1329.574,2370.521C1327.896,2383.785 1325.644,2396.872 1322.844,2409.755C1309.543,2441.199 1278.396,2463.285 1242.131,2463.285C1205.866,2463.285 1174.719,2441.199 1161.418,2409.755C1158.618,2396.872 1156.365,2383.785 1154.687,2370.521C1153.184,2358.638 1152.141,2346.613 1151.577,2334.463C1151.529,2333.111 1151.472,2331.761 1151.406,2330.413C1151.191,2324.672 1151.082,2318.904 1151.082,2313.111C1151.082,2210.876 1184.976,2116.494 1242.131,2040.601C1297.619,1966.919 1375.032,1910.663 1464.639,1881.564C1413.651,1809.814 1383,1722.624 1381.12,1628.429C1472.95,1598.393 1551.916,1539.819 1607.517,1463.208Z" style="fill:rgb(83,52,133);"/>
                </g>
                <g transform="matrix(1,0,0,1.293211,0,0)">
                    <path d="M733.863,2065.279C732.85,2065.313 731.833,2065.331 730.812,2065.331C682.468,2065.331 643.218,2026.081 643.218,1977.737C643.218,1946.743 659.35,1919.488 683.668,1903.916C691.556,1900.13 699.569,1896.565 707.701,1893.229L708.239,1893.009C715.19,1890.169 722.227,1887.495 729.344,1884.995C776.367,1868.476 826.922,1859.491 879.56,1859.491C928.852,1859.491 976.318,1867.37 1020.767,1881.937C1109.888,1911.143 1186.878,1967.233 1242.131,2040.601C1184.976,2116.494 1151.082,2210.876 1151.082,2313.111C1151.082,2318.904 1151.191,2324.672 1151.406,2330.413C1143.672,2171.583 1012.271,2045.001 851.538,2045.001C829.767,2045.001 808.534,2047.323 788.074,2051.733C781.754,2053.096 775.508,2054.657 769.342,2056.411C764.639,2057.749 759.982,2059.199 755.375,2060.757C748.267,2062.433 741.095,2063.942 733.863,2065.279Z" style="fill:rgb(233,69,96);"/>
                </g>
            </g>
            <g transform="matrix(0.859043,0,0,2.692287,4075.405978,252.977448)">
                <g transform="matrix(636.35474,0,0,636.35474,6025.824353,669.279364)">
                </g>
                <text x="3964.035px" y="669.279px" style="font-family:'Didot-Bold', 'Didot';font-weight:700;font-size:636.355px;">OW<tspan x="5154.018px " y="669.279px ">E</tspan>S</text>
            </g>
            <g transform="matrix(1.120859,0,0,3.512831,2912.755766,193.645222)">
                <g transform="matrix(159.088685,0,0,159.088685,4270.385602,783.235957)">
                </g>
                <g transform="matrix(159.088685,0,0,159.088685,4320.330091,783.235957)">
                </g>
                <g transform="matrix(159.088685,0,0,159.088685,5630.593858,783.235957)">
                </g>
                <text x="4085.047px" y="783.236px" style="font-family:'Didot';font-size:159.089px;">Ofﬁce <tspan x="4550.7px 4705.652px 4785.197px " y="783.236px 783.236px 783.236px ">Web</tspan> et Service</text>
            </g>
        </g>
    </g>
</svg>
